<svg xmlns="http://www.w3.org/2000/svg" version="1.1" xmlns:xlink="http://www.w3.org/1999/xlink" xmlns:svgjs="http://svgjs.com/svgjs" width="512" height="512" x="0" y="0" viewBox="0 0 512 512" style="enable-background:new 0 0 512 512" xml:space="preserve" class=""><g><path d="M474.949 1.124a7.507 7.507 0 0 0-7.291-.339L442.87 13.122 418.082.785a7.5 7.5 0 0 0-6.685.001L386.62 13.122 361.832.785a7.5 7.5 0 0 0-6.685.001L330.37 13.122 305.582.785a7.5 7.5 0 0 0-6.685.001L274.12 13.122 249.343.786A7.502 7.502 0 0 0 238.5 7.5V105h-95c-28.122 0-51 22.879-51 51v59H41a7.5 7.5 0 0 0-7.5 7.5V475c0 20.402 16.598 37 37 37h100c4.142 0 7.5-3.357 7.5-7.5s-3.358-7.5-7.5-7.5h-70.272a36.802 36.802 0 0 0 7.272-22v-58c0-4.143-3.358-7.5-7.5-7.5s-7.5 3.357-7.5 7.5v58c0 12.131-9.869 22-22 22s-22-9.869-22-22V230h44v152c0 4.143 3.358 7.5 7.5 7.5s7.5-3.357 7.5-7.5V156c0-19.851 16.149-36 36-36 18.153 0 33.203 13.509 35.645 31H145c-4.142 0-7.5 3.357-7.5 7.5s3.358 7.5 7.5 7.5h34.5v15H145c-4.142 0-7.5 3.357-7.5 7.5s3.358 7.5 7.5 7.5h34.5v15H145c-4.142 0-7.5 3.357-7.5 7.5s3.358 7.5 7.5 7.5h34.5v15H145c-4.142 0-7.5 3.357-7.5 7.5s3.358 7.5 7.5 7.5h34.5v15H145c-4.142 0-7.5 3.357-7.5 7.5s3.358 7.5 7.5 7.5h34.5v15H145c-4.142 0-7.5 3.357-7.5 7.5s3.358 7.5 7.5 7.5h34.5v15H145c-4.142 0-7.5 3.357-7.5 7.5s3.358 7.5 7.5 7.5h34.5v15H145c-4.142 0-7.5 3.357-7.5 7.5s3.358 7.5 7.5 7.5h34.5v15H145c-4.142 0-7.5 3.357-7.5 7.5s3.358 7.5 7.5 7.5h34.5v10c0 20.402 16.598 37 37 37h101v22c0 12.131-9.869 22-22 22h-90c-4.142 0-7.5 3.357-7.5 7.5s3.358 7.5 7.5 7.5h90c20.402 0 37-16.598 37-37v-22h40c4.142 0 7.5-3.357 7.5-7.5s-3.358-7.5-7.5-7.5H246.228a36.802 36.802 0 0 0 7.272-22V248.5c0-4.143-3.358-7.5-7.5-7.5s-7.5 3.357-7.5 7.5V416c0 12.131-9.869 22-22 22s-22-9.869-22-22V156c0-14.038-5.702-26.769-14.911-36H238.5v93c0 4.143 3.358 7.5 7.5 7.5s7.5-3.357 7.5-7.5V19.613l17.277 8.602a7.496 7.496 0 0 0 6.686 0l24.778-12.336 24.788 12.337a7.497 7.497 0 0 0 6.685-.001l24.778-12.336 24.788 12.337a7.497 7.497 0 0 0 6.685-.001l24.778-12.336 24.788 12.337a7.504 7.504 0 0 0 6.684 0l17.288-8.604V416c0 12.131-9.869 22-22 22h-34c-4.142 0-7.5 3.357-7.5 7.5s3.358 7.5 7.5 7.5h34c20.402 0 37-16.598 37-37V7.5a7.51 7.51 0 0 0-3.554-6.376z" fill="#1f3664" data-original="#000000" class=""></path><path d="M372.5 59c4.142 0 7.5-3.357 7.5-7.5s-3.358-7.5-7.5-7.5h-28c-4.142 0-7.5 3.357-7.5 7.5s3.358 7.5 7.5 7.5zM390 104h-62c-4.142 0-7.5 3.357-7.5 7.5s3.358 7.5 7.5 7.5h62c4.142 0 7.5-3.357 7.5-7.5s-3.358-7.5-7.5-7.5zM292 81.5a7.5 7.5 0 0 0 7.5 7.5h118c4.142 0 7.5-3.357 7.5-7.5s-3.358-7.5-7.5-7.5h-118a7.5 7.5 0 0 0-7.5 7.5zM366 151.5h-75c-4.142 0-7.5 3.357-7.5 7.5s3.358 7.5 7.5 7.5h75c4.142 0 7.5-3.357 7.5-7.5s-3.358-7.5-7.5-7.5zM426 151.5h-15c-4.142 0-7.5 3.357-7.5 7.5s3.358 7.5 7.5 7.5h15c4.142 0 7.5-3.357 7.5-7.5s-3.358-7.5-7.5-7.5zM291 196.5h35c4.142 0 7.5-3.357 7.5-7.5s-3.358-7.5-7.5-7.5h-35c-4.142 0-7.5 3.357-7.5 7.5s3.358 7.5 7.5 7.5zM426 181.5h-15c-4.142 0-7.5 3.357-7.5 7.5s3.358 7.5 7.5 7.5h15c4.142 0 7.5-3.357 7.5-7.5s-3.358-7.5-7.5-7.5zM366 211.5h-75c-4.142 0-7.5 3.357-7.5 7.5s3.358 7.5 7.5 7.5h75c4.142 0 7.5-3.357 7.5-7.5s-3.358-7.5-7.5-7.5zM426 211.5h-15c-4.142 0-7.5 3.357-7.5 7.5s3.358 7.5 7.5 7.5h15c4.142 0 7.5-3.357 7.5-7.5s-3.358-7.5-7.5-7.5zM291 256.5h35c4.142 0 7.5-3.357 7.5-7.5s-3.358-7.5-7.5-7.5h-35c-4.142 0-7.5 3.357-7.5 7.5s3.358 7.5 7.5 7.5zM426 241.5h-15c-4.142 0-7.5 3.357-7.5 7.5s3.358 7.5 7.5 7.5h15c4.142 0 7.5-3.357 7.5-7.5s-3.358-7.5-7.5-7.5zM366 271.5h-75c-4.142 0-7.5 3.357-7.5 7.5s3.358 7.5 7.5 7.5h75c4.142 0 7.5-3.357 7.5-7.5s-3.358-7.5-7.5-7.5zM426 271.5h-15c-4.142 0-7.5 3.357-7.5 7.5s3.358 7.5 7.5 7.5h15c4.142 0 7.5-3.357 7.5-7.5s-3.358-7.5-7.5-7.5zM291 316.5h35c4.142 0 7.5-3.357 7.5-7.5s-3.358-7.5-7.5-7.5h-35c-4.142 0-7.5 3.357-7.5 7.5s3.358 7.5 7.5 7.5zM426 301.5h-15c-4.142 0-7.5 3.357-7.5 7.5s3.358 7.5 7.5 7.5h15c4.142 0 7.5-3.357 7.5-7.5s-3.358-7.5-7.5-7.5zM366 331.5h-75c-4.142 0-7.5 3.357-7.5 7.5s3.358 7.5 7.5 7.5h75c4.142 0 7.5-3.357 7.5-7.5s-3.358-7.5-7.5-7.5zM426 331.5h-15c-4.142 0-7.5 3.357-7.5 7.5s3.358 7.5 7.5 7.5h15c4.142 0 7.5-3.357 7.5-7.5s-3.358-7.5-7.5-7.5zM291 376.5h35c4.142 0 7.5-3.357 7.5-7.5s-3.358-7.5-7.5-7.5h-35c-4.142 0-7.5 3.357-7.5 7.5s3.358 7.5 7.5 7.5zM426 361.5h-15c-4.142 0-7.5 3.357-7.5 7.5s3.358 7.5 7.5 7.5h15c4.142 0 7.5-3.357 7.5-7.5s-3.358-7.5-7.5-7.5zM291 406.5h75c4.142 0 7.5-3.357 7.5-7.5s-3.358-7.5-7.5-7.5h-75c-4.142 0-7.5 3.357-7.5 7.5s3.358 7.5 7.5 7.5zM426 391.5h-15c-4.142 0-7.5 3.357-7.5 7.5s3.358 7.5 7.5 7.5h15c4.142 0 7.5-3.357 7.5-7.5s-3.358-7.5-7.5-7.5zM237.5 474.5a7.5 7.5 0 0 0-7.5-7.5h-35c-4.142 0-7.5 3.357-7.5 7.5s3.358 7.5 7.5 7.5h35a7.5 7.5 0 0 0 7.5-7.5zM280 482c4.142 0 7.5-3.357 7.5-7.5s-3.358-7.5-7.5-7.5h-21c-4.142 0-7.5 3.357-7.5 7.5s3.358 7.5 7.5 7.5z" fill="#1f3664" data-original="#000000" class=""></path></g></svg>