<svg xmlns="http://www.w3.org/2000/svg" version="1.1" xmlns:xlink="http://www.w3.org/1999/xlink" xmlns:svgjs="http://svgjs.com/svgjs" width="512" height="512" x="0" y="0" viewBox="0 0 512 512" style="enable-background:new 0 0 512 512" xml:space="preserve" class=""><g><path d="M497 31H136c-8.284 0-15 6.716-15 15v195.983c-20.073 3.44-38.583 13.678-52.145 29.017H61v-15c0-8.284-6.716-15-15-15H15c-8.284 0-15 6.716-15 15s6.716 15 15 15h16v180H15c-8.284 0-15 6.716-15 15s6.716 15 15 15h31c8.284 0 15-6.716 15-15v-15h12.665c95.663 30.277 92.048 30 96.335 30h206c31.032 0 52.77-30.818 42.42-60H497c8.284 0 15-6.716 15-15V46c0-8.284-6.716-15-15-15zM286 61h60v75h-60zm105 375c0 8.271-6.729 15-15 15H172.335C76.673 420.723 80.288 421 76 421H61V301h15c4.764 0 9.245-2.263 12.072-6.097 23.757-32.212 72.08-32.238 95.855 0A15.002 15.002 0 0 0 196 301h75c8.271 0 15 6.729 15 15s-6.729 15-15 15h-90c-8.284 0-15 6.716-15 15 0 41.355 33.645 75 75 75h135c8.271 0 15 6.729 15 15zm91-45H241c-19.556 0-36.239-12.539-42.43-30H271c24.813 0 45-20.187 45-45s-20.187-45-45-45h-67.855c-13.561-15.339-32.072-25.577-52.145-29.017V61h105v90c0 8.284 6.716 15 15 15h90c8.284 0 15-6.716 15-15V61h106z" fill="#1f3664" data-original="#000000" class=""></path></g></svg>