<svg width="39" height="34" viewBox="0 0 39 34" fill="none" xmlns="http://www.w3.org/2000/svg">
<path d="M4.202 25.957L20.78 29.14L22.068 26.917L7.332 20.55L4.202 25.957ZM11.882 12.69L24.777 22.244L26.065 20.02L15.013 7.282L11.883 12.69H11.882ZM8.03 19.348L22.766 25.717L24.079 23.445L11.184 13.892L8.03 19.348ZM19.227 0L15.747 6.02L26.8 18.76L28.438 15.936L19.227 0ZM0 33.227H18.42L20.057 30.403L3.48 27.22L0 33.227ZM29.231 25.789L33.541 33.227H38.441L29.231 17.305L20.021 33.227H24.921L29.231 25.789Z" fill="#FCAF17"/>
</svg>
