<svg width="32" height="33" fill="none" xmlns="http://www.w3.org/2000/svg"><g fill-rule="evenodd" clip-rule="evenodd"><path d="M28.442 13.32c.408-.06.835-.09 1.28-.09.444 0 .87.03 1.278.09v2.154h-2.558V13.32zm0 7.046c.408.06.835.09 1.28.09.444 0 .87-.03 1.278-.09v-2.154h-2.558v2.154z" fill="#D02D42"/><path d="M19.273 13.396v6.912h2.425v-2.65h.917l2.015 2.65h3.005L24.63 16.64l2.869-3.244h-2.87l-2.014 2.546h-.917v-2.546h-2.425zm-8.586-.029l.317 1.83a42.024 42.024 0 012.694-.109c.713 0 1.42.037 2.123.11l.123.705h-3.198v1.82h3.197l-.122.79c-.612.052-1.35.078-2.214.078-.865 0-1.732-.026-2.603-.077l-.317 1.782a66.8 66.8 0 003.612.105c1.121 0 2.234-.035 3.34-.105a9.684 9.684 0 00.615-3.396c0-1.16-.205-2.338-.615-3.532a43.44 43.44 0 00-3.161-.097c-1.254 0-2.518.032-3.791.096zM2 13.393v6.89h2.478V15.3h2.848v4.983h2.502v-6.89H2z" fill="#242265"/></g></svg>