<svg width="513" height="464" viewBox="0 0 513 464" fill="none" xmlns="http://www.w3.org/2000/svg">
<path d="M511.999 63.354C511.999 63.298 511.992 63.242 511.99 63.185C511.984 62.962 511.971 62.742 511.945 62.524C511.935 62.444 511.92 62.364 511.908 62.284C511.878 62.083 511.841 61.885 511.795 61.691C511.777 61.614 511.757 61.538 511.736 61.461C511.678 61.25 511.612 61.043 511.536 60.839C511.522 60.8 511.513 60.76 511.498 60.722L491.153 8.64C489.102 3.392 484.135 0 478.5 0H441.456C437.418 0 434.145 3.273 434.145 7.311C434.145 11.349 437.418 14.622 441.456 14.622H477.792L493.983 56.071H340.909L331.318 14.622H387.851C391.889 14.622 395.162 11.349 395.162 7.311C395.162 3.273 391.889 0 387.851 0H322.122H248.455H92.0764C86.4404 0 81.4744 3.392 79.4234 8.642L59.0784 60.722C59.0634 60.761 59.0554 60.801 59.0404 60.839C58.9644 61.042 58.8984 61.249 58.8404 61.461C58.8194 61.538 58.7994 61.614 58.7814 61.691C58.7354 61.886 58.6984 62.084 58.6684 62.284C58.6564 62.364 58.6414 62.444 58.6314 62.524C58.6064 62.742 58.5924 62.962 58.5864 63.185C58.5854 63.241 58.5784 63.297 58.5774 63.354C58.5774 63.363 58.5764 63.372 58.5764 63.381V170.791C58.5764 174.829 61.8494 178.102 65.8874 178.102C69.9254 178.102 73.1984 174.829 73.1984 170.791V70.693H228.17V181.821C228.17 186.167 230.73 190.127 234.693 191.91C236.144 192.563 237.689 192.882 239.224 192.882C241.88 192.882 244.507 191.928 246.567 190.102L285.288 155.798L324.009 190.101C327.26 192.984 331.922 193.693 335.885 191.91C339.847 190.126 342.407 186.167 342.407 181.821V70.693H497.378V398.616C497.378 403.862 493.109 408.131 487.863 408.131H353.81C353.81 408.048 353.8 407.965 353.799 407.882C353.791 407.226 353.767 406.571 353.711 405.921C366.298 409.258 379.747 402.789 384.791 390.419C387.444 383.912 387.405 376.762 384.68 370.286C384.423 369.676 384.14 369.084 383.842 368.501C383.787 368.394 383.734 368.286 383.679 368.18C383.386 367.624 383.074 367.081 382.745 366.552C382.681 366.449 382.615 366.349 382.55 366.247C382.202 365.704 381.841 365.171 381.456 364.658C381.449 364.648 381.441 364.639 381.434 364.63C381.052 364.123 380.648 363.635 380.231 363.158C380.155 363.071 380.08 362.983 380.003 362.896C379.59 362.436 379.161 361.991 378.717 361.562C378.63 361.478 378.542 361.397 378.454 361.315C377.989 360.878 377.513 360.453 377.017 360.052C377 360.039 376.983 360.026 376.966 360.013C376.478 359.62 375.971 359.248 375.454 358.89C375.361 358.825 375.269 358.759 375.174 358.695C374.657 358.347 374.127 358.018 373.583 357.705C373.538 357.679 373.497 357.649 373.451 357.623C376.541 354.949 378.98 351.565 380.568 347.671C383.221 341.164 383.182 334.014 380.457 327.537C378.073 321.87 373.882 317.312 368.514 314.484C367.747 314.08 366.956 313.711 366.143 313.38L252.356 266.983L305.322 250.589C317.923 246.688 325.02 233.248 321.142 220.631C319.695 215.921 316.826 211.949 313.12 209.046C307.605 204.725 300.234 202.774 292.924 204.309C292.889 204.317 292.855 204.323 292.82 204.332C292.415 204.423 251.811 213.553 209.404 221.822C207.523 222.189 205.69 222.543 203.883 222.891C202.437 223.169 201.011 223.443 199.612 223.709C199.21 223.786 198.807 223.862 198.408 223.938C195.938 224.407 193.545 224.856 191.219 225.288C190.283 225.462 189.355 225.634 188.442 225.802C135.185 235.613 120.224 235.789 116.072 235.227C116.056 235.225 116.042 235.223 116.026 235.22C115.963 235.211 115.901 235.202 115.843 235.193C115.801 235.186 115.762 235.179 115.723 235.173C115.695 235.168 115.665 235.163 115.638 235.159C115.379 235.112 115.177 235.063 115.021 235.016L113.823 234.528L115.316 230.867C116.784 227.267 116.762 223.311 115.255 219.728C114.878 218.832 114.419 217.986 113.887 217.198C112.291 214.835 110.034 212.995 107.334 211.894L68.0664 195.883C64.4674 194.414 60.5104 194.437 56.9274 195.944C53.3434 197.451 50.5624 200.264 49.0944 203.863L1.07742 321.626C-1.95258 329.057 1.62842 337.567 9.05942 340.598L48.3284 356.61C50.1214 357.341 51.9764 357.687 53.8034 357.687C59.5464 357.687 65.0004 354.265 67.2994 348.628L67.6604 347.743L76.7144 351.434C76.7194 351.436 76.7244 351.439 76.7304 351.441C85.3904 354.972 93.3694 360.01 100.275 366.262C101.531 367.399 102.751 368.576 103.934 369.791C105.117 371.006 106.261 372.26 107.366 373.55C107.918 374.195 108.461 374.85 108.992 375.513C119.055 388.061 132.247 397.904 147.14 403.977L157.326 408.13H82.7144C77.4684 408.13 73.1994 403.861 73.1994 398.615V380.116C73.1994 376.078 69.9264 372.805 65.8884 372.805C61.8504 372.805 58.5774 376.078 58.5774 380.116V398.615C58.5774 411.924 69.4044 422.752 82.7144 422.752H193.187L287.368 461.154C290.61 462.476 293.964 463.103 297.267 463.102C307.646 463.102 317.504 456.917 321.659 446.728C323.363 442.549 323.91 438.181 323.451 433.982C328.35 434.685 333.429 434.04 338.033 432.052C342.712 430.031 346.59 426.812 349.344 422.751H487.864C501.173 422.751 512.001 411.924 512.001 398.614V63.382C512 63.372 511.999 63.364 511.999 63.354ZM254.267 14.622H316.309L325.9 56.071H244.676L254.267 14.622ZM229.668 56.071H76.5934L92.7844 14.622H239.259L229.668 56.071ZM327.787 173.912L292.624 142.762C290.533 140.91 287.911 139.984 285.29 139.984C282.668 139.984 280.045 140.91 277.954 142.762L242.793 173.912V70.693H327.787V173.912ZM53.7854 343.044L14.6424 327.084L62.6084 209.449L101.751 225.41L53.7854 343.044ZM345.87 387.165L337.479 383.743C337.475 383.741 337.471 383.74 337.467 383.738C337.464 383.737 337.461 383.735 337.458 383.734C337.457 383.734 337.456 383.733 337.455 383.733L250.069 348.102C246.331 346.578 242.064 348.372 240.539 352.112C239.014 355.851 240.809 360.118 244.549 361.643L331.937 397.275C332.302 397.424 332.655 397.589 332.996 397.77C333.092 397.821 333.181 397.883 333.275 397.936C333.515 398.072 333.756 398.208 333.983 398.359C334.092 398.432 334.192 398.516 334.298 398.592C334.499 398.736 334.704 398.878 334.894 399.034C335.009 399.128 335.113 399.233 335.224 399.331C335.394 399.482 335.568 399.628 335.728 399.788C335.839 399.898 335.938 400.019 336.044 400.133C336.191 400.291 336.342 400.446 336.48 400.612C336.585 400.739 336.677 400.874 336.777 401.005C336.902 401.169 337.032 401.33 337.147 401.5C337.244 401.642 337.327 401.792 337.417 401.937C337.521 402.105 337.631 402.27 337.726 402.443C337.812 402.599 337.884 402.762 337.963 402.921C338.047 403.092 338.138 403.26 338.214 403.435C338.287 403.603 338.346 403.777 338.411 403.948C338.477 404.121 338.549 404.291 338.607 404.467C338.665 404.644 338.709 404.825 338.758 405.004C338.807 405.181 338.862 405.355 338.903 405.534C338.944 405.715 338.97 405.899 339.003 406.081C339.036 406.263 339.074 406.443 339.098 406.627C339.122 406.811 339.131 406.997 339.146 407.182C339.161 407.368 339.183 407.553 339.189 407.739C339.195 407.922 339.186 408.107 339.184 408.291C339.182 408.481 339.185 408.671 339.173 408.862C339.162 409.043 339.135 409.224 339.115 409.405C339.094 409.6 339.078 409.795 339.046 409.989C339.017 410.167 338.972 410.344 338.935 410.522C338.893 410.719 338.858 410.916 338.805 411.112C338.759 411.285 338.697 411.457 338.642 411.629C338.58 411.825 338.523 412.021 338.45 412.214C338.388 412.347 338.327 412.481 338.27 412.616C338.257 412.647 338.25 412.679 338.238 412.709C337.096 415.346 334.988 417.441 332.235 418.63C329.205 419.937 325.736 419.983 322.716 418.751L307.233 412.438C307.161 412.409 307.088 412.389 307.016 412.362C306.943 412.329 306.874 412.291 306.8 412.261L235.724 383.28C231.983 381.756 227.718 383.55 226.194 387.29C224.669 391.029 226.464 395.296 230.203 396.821L301.279 425.802C301.355 425.833 301.432 425.855 301.509 425.883C301.578 425.913 301.642 425.95 301.713 425.978C307.678 428.411 310.553 435.243 308.121 441.208C305.688 447.175 298.859 450.051 292.891 447.616L197.396 408.678C197.392 408.676 197.388 408.674 197.384 408.672L152.664 390.437C144.792 387.227 137.482 382.772 131.029 377.291C127.157 374.002 123.594 370.345 120.402 366.365C117.257 362.444 113.807 358.787 110.095 355.426C101.928 348.033 92.4934 342.076 82.2544 337.9C82.2534 337.9 82.2524 337.899 82.2514 337.899L73.1854 334.203L91.2424 289.918L108.306 248.069L109.565 248.582C110.75 249.065 112.44 249.751 116.988 249.923C122.67 250.18 132.07 249.587 148.91 247.208C160.365 245.59 174.416 243.25 190.819 240.232C191.223 240.158 191.624 240.084 192.032 240.009C192.799 239.867 193.574 239.723 194.352 239.579C194.957 239.467 195.565 239.353 196.178 239.238C196.876 239.107 197.577 238.976 198.283 238.843C199.032 238.702 199.79 238.559 200.552 238.414C201.162 238.298 201.771 238.183 202.387 238.066C203.316 237.889 204.261 237.708 205.209 237.526C205.697 237.432 206.18 237.34 206.672 237.246C208.124 236.966 209.595 236.682 211.093 236.391C253.354 228.171 294.144 219.022 295.977 218.61C296.16 218.572 296.343 218.55 296.526 218.523C301.222 217.828 305.823 220.544 307.17 224.926C307.643 226.466 307.698 228.037 307.4 229.515C306.745 232.768 304.381 235.575 301.002 236.62L228.52 259.054C225.569 259.968 223.511 262.635 223.378 265.721C223.244 268.806 225.062 271.643 227.922 272.809L360.626 326.92C363.516 328.098 365.774 330.331 366.984 333.208C368.194 336.085 368.212 339.261 367.033 342.15C365.854 345.04 363.622 347.298 360.745 348.508C359.307 349.112 357.794 349.418 356.279 349.427C356.257 349.427 356.235 349.424 356.213 349.424C355.857 349.424 355.502 349.41 355.147 349.377C355.042 349.367 354.938 349.345 354.833 349.333C354.562 349.3 354.291 349.269 354.022 349.217C353.852 349.184 353.684 349.134 353.515 349.094C353.313 349.046 353.11 349.005 352.91 348.946C352.703 348.885 352.5 348.804 352.296 348.731C352.134 348.673 351.969 348.625 351.809 348.56L264.413 312.924C260.674 311.399 256.408 313.194 254.883 316.934C253.358 320.673 255.153 324.94 258.893 326.465L364.848 369.668C365.571 369.962 366.254 370.323 366.891 370.743C368.802 372.003 370.299 373.798 371.206 375.956C372.265 378.473 372.411 381.219 371.641 383.802C371.531 384.171 371.402 384.537 371.255 384.898C371.103 385.271 370.934 385.632 370.749 385.98C370.318 386.79 369.793 387.522 369.207 388.189C368.843 388.603 368.454 388.989 368.04 389.343C367.974 389.399 367.914 389.463 367.847 389.517C365.179 391.699 361.612 392.637 358.127 391.933C357.42 391.79 356.717 391.587 356.025 391.305L345.87 387.165Z" fill="#1F3664"/>
</svg>
