<svg width="29" height="8" viewBox="0 0 29 8" fill="none" xmlns="http://www.w3.org/2000/svg">
<path fill-rule="evenodd" clip-rule="evenodd" d="M26.4419 0.0893176C26.8499 0.0297725 27.2762 0 27.7209 0C28.1656 0 28.592 0.0297725 28.9999 0.0893176V2.24346H26.4419V0.0893176Z" fill="#D02D42"/>
<path fill-rule="evenodd" clip-rule="evenodd" d="M26.4419 7.13529C26.8499 7.19484 27.2762 7.22461 27.7209 7.22461C28.1656 7.22461 28.592 7.19484 28.9999 7.13529V4.98115H26.4419V7.13529Z" fill="#D02D42"/>
<path fill-rule="evenodd" clip-rule="evenodd" d="M17.2729 0.166016V7.07739H19.698V4.42802H20.6155L22.6302 7.07739H25.6358L22.6302 3.41011L25.4992 0.166016H22.6302L20.6155 2.71266H19.698V0.166016H17.2729Z" fill="#242265"/>
<path fill-rule="evenodd" clip-rule="evenodd" d="M8.68652 0.136995L9.00435 1.96691C10.0864 1.89398 10.9841 1.85752 11.6976 1.85752C12.411 1.85752 13.1189 1.89398 13.8211 1.96691L13.9435 2.67251H10.7464V4.49164H13.9435L13.8211 5.28332C13.2091 5.3348 12.4709 5.36054 11.6066 5.36054C10.7422 5.36054 9.87482 5.3348 9.00435 5.28332L8.68652 7.06555C9.97448 7.13567 11.1788 7.17073 12.2994 7.17073C13.42 7.17073 14.5333 7.13567 15.6393 7.06555C16.0493 5.96134 16.2543 4.82919 16.2543 3.66912C16.2543 2.50904 16.0493 1.33166 15.6393 0.136995C14.7855 0.0730087 13.7316 0.0410156 12.4777 0.0410156C11.2239 0.0410156 9.96011 0.0730087 8.68652 0.136995Z" fill="#242265"/>
<path fill-rule="evenodd" clip-rule="evenodd" d="M0 0.162109V7.05219H2.47837V2.06977H5.32601V7.05219H7.82795V0.162109H0Z" fill="#242265"/>
</svg>
